<svg width="165" height="30" viewBox="0 0 165 30" fill="none" xmlns="http://www.w3.org/2000/svg">
<path d="M99.6294 23.8883C97.5105 23.8883 95.8455 23.1179 94.6347 21.577C93.4343 20.0259 92.834 17.8852 92.834 15.1551C92.834 12.4561 93.4447 10.3413 94.666 8.81076C95.8873 7.26991 97.5626 6.49949 99.6921 6.49949C100.903 6.49949 101.957 6.79422 102.855 7.38367C103.763 7.97312 104.41 8.75389 104.796 9.72596H104.906V1.25647H110.449V23.6401H104.937V20.7394H104.828C104.473 21.6598 103.826 22.4147 102.886 23.0041C101.957 23.5936 100.872 23.8883 99.6294 23.8883ZM104.061 11.9907C103.486 11.1944 102.704 10.7963 101.712 10.7963C100.72 10.7963 99.9374 11.1893 99.3633 11.9752C98.7996 12.7611 98.5178 13.8366 98.5178 15.2017C98.5178 16.5667 98.7996 17.6422 99.3633 18.4281C99.9269 19.2037 100.71 19.5915 101.712 19.5915C102.714 19.5915 103.497 19.2037 104.061 18.4281C104.635 17.6525 104.922 16.577 104.922 15.2017C104.922 13.847 104.635 12.7766 104.061 11.9907Z" fill="url(#paint0_linear)"/>
<path d="M120.235 20.1034C121.101 20.1034 121.842 19.8656 122.458 19.3899C123.085 18.9142 123.398 18.3092 123.398 17.575V16.4116L120.298 16.6132C119.577 16.665 119.019 16.8511 118.622 17.1717C118.225 17.4819 118.027 17.8852 118.027 18.3816C118.027 18.909 118.225 19.3278 118.622 19.6381C119.029 19.9483 119.567 20.1034 120.235 20.1034ZM118.262 23.8883C116.655 23.8883 115.298 23.4074 114.191 22.4457C113.085 21.484 112.531 20.2534 112.531 18.7539C112.531 17.182 113.121 15.9566 114.301 15.0776C115.48 14.1986 117.182 13.6918 119.405 13.5574L123.398 13.3247V12.363C123.398 11.7011 123.179 11.1893 122.74 10.8273C122.302 10.455 121.712 10.2689 120.971 10.2689C120.24 10.2689 119.64 10.4395 119.17 10.7808C118.711 11.1117 118.439 11.546 118.356 12.0838H113.361C113.445 10.3361 114.191 8.9452 115.6 7.91107C117.009 6.8666 118.894 6.34437 121.253 6.34437C123.528 6.34437 125.36 6.87177 126.748 7.92658C128.137 8.97105 128.831 10.3464 128.831 12.0527V23.6401H123.429V21.2358H123.319C122.871 22.0631 122.182 22.7146 121.253 23.1903C120.324 23.6556 119.327 23.8883 118.262 23.8883Z" fill="url(#paint1_linear)"/>
<path d="M133.935 29.8604C132.641 29.8604 131.968 29.8552 131.915 29.8449V25.6877C132.02 25.7084 132.422 25.7187 133.121 25.7187C133.998 25.7187 134.65 25.5998 135.078 25.3619C135.506 25.1344 135.757 24.7673 135.83 24.2606L135.861 23.9814C135.872 23.7952 135.872 23.6815 135.861 23.6401L130.115 6.74768H136.237L139.322 19.514H139.415L142.484 6.74768H148.34L142.891 23.5936C142.161 25.8583 141.112 27.4664 139.744 28.4178C138.377 29.3795 136.441 29.8604 133.935 29.8604Z" fill="url(#paint2_linear)"/>
<path d="M149.342 11.8666C149.342 10.1706 150.021 8.82627 151.378 7.83351C152.745 6.84075 154.603 6.34437 156.952 6.34437C159.269 6.34437 161.106 6.85626 162.463 7.88005C163.82 8.89349 164.509 10.274 164.53 12.0217H159.457C159.436 11.4116 159.196 10.9307 158.737 10.5791C158.278 10.2275 157.667 10.0517 156.905 10.0517C156.227 10.0517 155.684 10.1861 155.277 10.455C154.87 10.7239 154.666 11.0755 154.666 11.5098C154.666 12.1924 155.303 12.6629 156.576 12.9214L160.146 13.635C161.848 13.9969 163.079 14.545 163.841 15.2792C164.614 16.0031 165 17.0062 165 18.2885C165 20.0362 164.269 21.4323 162.808 22.4767C161.347 23.5212 159.421 24.0434 157.03 24.0434C154.577 24.0434 152.641 23.5315 151.221 22.5078C149.812 21.484 149.05 20.0931 148.935 18.3351H154.322C154.405 18.9659 154.687 19.4571 155.167 19.8087C155.658 20.1603 156.31 20.3361 157.124 20.3361C157.865 20.3361 158.445 20.212 158.862 19.9638C159.29 19.7053 159.504 19.3537 159.504 18.909C159.504 18.5677 159.363 18.2937 159.081 18.0869C158.8 17.8697 158.325 17.6939 157.657 17.5595L154.431 16.8925C152.761 16.5409 151.493 15.9411 150.626 15.0931C149.77 14.2348 149.342 13.1593 149.342 11.8666Z" fill="url(#paint3_linear)"/>
<path d="M0 23.6401V6.74767H5.40188V10.0052H5.51148C5.84551 8.909 6.45094 8.04033 7.32777 7.39917C8.20459 6.74767 9.22234 6.42192 10.381 6.42192C11.6545 6.42192 12.7035 6.73733 13.5282 7.36815C14.3528 7.98862 14.8852 8.8728 15.1253 10.0207H15.2349C15.5689 8.93485 16.2109 8.06618 17.1608 7.41468C18.1211 6.75284 19.2328 6.42192 20.4958 6.42192C22.166 6.42192 23.5177 6.9545 24.5511 8.01965C25.5846 9.07446 26.1013 10.4602 26.1013 12.1768V23.6401H20.5428V13.5729C20.5428 11.7839 19.7443 10.8893 18.1472 10.8893C17.3956 10.8893 16.8006 11.1375 16.3622 11.6339C15.9238 12.1303 15.7046 12.7921 15.7046 13.6194V23.6401H10.3967V13.5109C10.3967 12.6629 10.1931 12.0165 9.78601 11.5719C9.37891 11.1169 8.79436 10.8893 8.03236 10.8893C7.28079 10.8893 6.68058 11.1427 6.23173 11.6494C5.78288 12.1562 5.55845 12.8232 5.55845 13.6505V23.6401H0Z" fill="url(#paint4_linear)"/>
<path d="M35.7777 20.1034C36.6441 20.1034 37.3852 19.8656 38.001 19.3899C38.6273 18.9142 38.9405 18.3092 38.9405 17.575V16.4116L35.8403 16.6132C35.12 16.6649 34.5616 16.8511 34.1649 17.1717C33.7683 17.4819 33.5699 17.8852 33.5699 18.3816C33.5699 18.909 33.7683 19.3278 34.1649 19.6381C34.572 19.9483 35.1096 20.1034 35.7777 20.1034ZM33.8048 23.8883C32.1973 23.8883 30.8403 23.4074 29.7338 22.4457C28.6273 21.484 28.0741 20.2534 28.0741 18.7539C28.0741 17.182 28.6639 15.9566 29.8434 15.0776C31.023 14.1986 32.7244 13.6918 34.9478 13.5574L38.9405 13.3247V12.363C38.9405 11.7011 38.7213 11.1892 38.2829 10.8273C37.8445 10.455 37.2547 10.2689 36.5136 10.2689C35.7829 10.2689 35.1827 10.4395 34.7129 10.7808C34.2537 11.1117 33.9823 11.546 33.8987 12.0838H28.904C28.9875 10.3361 29.7338 8.94519 31.143 7.91107C32.5522 6.8666 34.4363 6.34436 36.7954 6.34436C39.071 6.34436 40.9029 6.87177 42.2912 7.92658C43.6795 8.97104 44.3737 10.3464 44.3737 12.0527V23.6401H38.9718V21.2358H38.8622C38.4134 22.0631 37.7244 22.7146 36.7954 23.1903C35.8664 23.6556 34.8695 23.8883 33.8048 23.8883Z" fill="url(#paint5_linear)"/>
<path d="M55.3967 19.4364C56.3987 19.4364 57.1816 19.0693 57.7453 18.3351C58.3194 17.5905 58.6065 16.5408 58.6065 15.1861C58.6065 13.8418 58.3194 12.7766 57.7453 11.9907C57.1712 11.1944 56.3883 10.7963 55.3967 10.7963C54.405 10.7963 53.6221 11.1892 53.048 11.9752C52.4843 12.7611 52.2025 13.8314 52.2025 15.1861C52.2025 16.5408 52.4791 17.5905 53.0324 18.3351C53.596 19.0693 54.3841 19.4364 55.3967 19.4364ZM55.2244 30C52.834 30 50.8977 29.514 49.4154 28.5419C47.9436 27.5698 47.1294 26.303 46.9729 24.7415H52.3434C52.4791 25.2378 52.8184 25.636 53.3612 25.9359C53.904 26.2461 54.5668 26.4012 55.3497 26.4012C56.3935 26.4012 57.1921 26.1479 57.7453 25.6412C58.309 25.1344 58.5908 24.4519 58.5908 23.5936V20.4912H58.4812C58.1367 21.3909 57.4948 22.12 56.5553 22.6784C55.6263 23.2265 54.5407 23.5005 53.2985 23.5005C51.2317 23.5005 49.5825 22.7611 48.3507 21.2823C47.1294 19.8035 46.5188 17.7559 46.5188 15.1396C46.5188 12.4405 47.1242 10.3258 48.3351 8.79524C49.5564 7.26474 51.237 6.49948 53.3768 6.49948C54.5877 6.49948 55.6472 6.79938 56.5553 7.39917C57.4635 7.98862 58.1159 8.76939 58.5125 9.74147H58.6221V6.74767H64.1336V23.454C64.1336 25.4498 63.3142 27.0372 61.6754 28.2161C60.047 29.4054 57.8967 30 55.2244 30Z" fill="url(#paint6_linear)"/>
<path d="M66.8737 23.6401V6.74767H72.4165V23.6401H66.8737ZM71.6649 4.60703C71.1221 5.12409 70.4489 5.38263 69.6451 5.38263C68.8413 5.38263 68.1628 5.12409 67.6096 4.60703C67.0668 4.08997 66.7954 3.44881 66.7954 2.68356C66.7954 1.92865 67.0668 1.29266 67.6096 0.775595C68.1628 0.258532 68.8413 0 69.6451 0C70.4489 0 71.1221 0.258532 71.6649 0.775595C72.2077 1.28232 72.4791 1.9183 72.4791 2.68356C72.4791 3.44881 72.2077 4.08997 71.6649 4.60703Z" fill="url(#paint7_linear)"/>
<path d="M91.2996 13.4178H86.1952C86.1012 12.5284 85.7985 11.8252 85.2871 11.3082C84.786 10.7911 84.1336 10.5326 83.3299 10.5326C82.3486 10.5326 81.5866 10.9359 81.0438 11.7425C80.501 12.5491 80.2296 13.697 80.2296 15.1861C80.2296 16.6856 80.501 17.8438 81.0438 18.6608C81.5866 19.4674 82.3486 19.8707 83.3299 19.8707C84.1441 19.8707 84.8017 19.6277 85.3027 19.1417C85.8038 18.6453 86.1065 17.9576 86.2109 17.0786H91.2996C91.2265 19.2296 90.4697 20.9307 89.0292 22.182C87.5887 23.423 85.6681 24.0434 83.2672 24.0434C80.5846 24.0434 78.4708 23.2575 76.9259 21.6856C75.381 20.1138 74.6086 17.9473 74.6086 15.1861C74.6086 12.456 75.381 10.2999 76.9259 8.71768C78.4708 7.13547 80.5741 6.34436 83.2359 6.34436C85.6263 6.34436 87.547 6.99069 88.9979 8.28335C90.4593 9.57601 91.2265 11.2875 91.2996 13.4178Z" fill="url(#paint8_linear)"/>
<defs>
<linearGradient id="paint0_linear" x1="165" y1="0.999999" x2="93" y2="30" gradientUnits="userSpaceOnUse">
<stop stop-color="#3A3742"/>
<stop offset="1" stop-color="#333137"/>
</linearGradient>
<linearGradient id="paint1_linear" x1="165" y1="0.999999" x2="93" y2="30" gradientUnits="userSpaceOnUse">
<stop stop-color="#3A3742"/>
<stop offset="1" stop-color="#333137"/>
</linearGradient>
<linearGradient id="paint2_linear" x1="165" y1="0.999999" x2="93" y2="30" gradientUnits="userSpaceOnUse">
<stop stop-color="#3A3742"/>
<stop offset="1" stop-color="#333137"/>
</linearGradient>
<linearGradient id="paint3_linear" x1="165" y1="0.999999" x2="93" y2="30" gradientUnits="userSpaceOnUse">
<stop stop-color="#3A3742"/>
<stop offset="1" stop-color="#333137"/>
</linearGradient>
<linearGradient id="paint4_linear" x1="91" y1="1.29087e-06" x2="5.6285e-07" y2="30" gradientUnits="userSpaceOnUse">
<stop stop-color="#8D1CFF"/>
<stop offset="1" stop-color="#2E88F1"/>
</linearGradient>
<linearGradient id="paint5_linear" x1="91" y1="1.29087e-06" x2="5.6285e-07" y2="30" gradientUnits="userSpaceOnUse">
<stop stop-color="#8D1CFF"/>
<stop offset="1" stop-color="#2E88F1"/>
</linearGradient>
<linearGradient id="paint6_linear" x1="91" y1="1.29087e-06" x2="5.6285e-07" y2="30" gradientUnits="userSpaceOnUse">
<stop stop-color="#8D1CFF"/>
<stop offset="1" stop-color="#2E88F1"/>
</linearGradient>
<linearGradient id="paint7_linear" x1="91" y1="1.29087e-06" x2="5.6285e-07" y2="30" gradientUnits="userSpaceOnUse">
<stop stop-color="#8D1CFF"/>
<stop offset="1" stop-color="#2E88F1"/>
</linearGradient>
<linearGradient id="paint8_linear" x1="91" y1="1.29087e-06" x2="5.6285e-07" y2="30" gradientUnits="userSpaceOnUse">
<stop stop-color="#8D1CFF"/>
<stop offset="1" stop-color="#2E88F1"/>
</linearGradient>
</defs>
</svg>
