<svg width="94" height="96" viewBox="0 0 94 96" fill="none" xmlns="http://www.w3.org/2000/svg">
<path d="M47 0L55.3312 11.4987L67.8264 4.75349L70.3435 18.7282L84.5279 18.0725L80.7323 31.7554L93.7965 37.319L84.44 48L93.7965 58.681L80.7323 64.2446L84.5279 77.9275L70.3435 77.2718L67.8264 91.2465L55.3312 84.5013L47 96L38.6688 84.5013L26.1736 91.2465L23.6565 77.2718L9.47209 77.9275L13.2677 64.2446L0.203461 58.681L9.56 48L0.203461 37.319L13.2677 31.7554L9.47209 18.0725L23.6565 18.7282L26.1736 4.75349L38.6688 11.4987L47 0Z" fill="#FF6161"/>
</svg>
